{"accessors" : [{"bufferView" : 0, "byteOffset" : 0, "componentType" : 5123, "count" : 1128, "type" : "SCALAR", "max" : [1127], "min" : [0]}, {"bufferView" : 1, "byteOffset" : 0, "componentType" : 5126, "count" : 1128, "type" : "VEC3", "max" : [11.337936401367188, 0.5994870066642761, 10], "min" : [-67.25953674316406, -71.52445983886719, 0], "name" : "POSITION"}, {"bufferView" : 1, "byteOffset" : 12, "componentType" : 5126, "count" : 1128, "type" : "VEC3", "max" : [0.9693149924278259, 0.9908695816993713, 1.0000044107437134], "min" : [-0.969314694404602, -0.9823772311210632, -1.0000044107437134], "name" : "NORMAL"}], "asset" : {"generator" : "Aspose.3D 25.3.0", "version" : "2.0"}, "buffers" : [{"uri" : "data:application/octet-stream;base64,", "byteLength" : 29336}], "bufferViews" : [{"buffer" : 0, "byteOffset" : 0, "byteLength" : 2256, "target" : 34963}, {"buffer" : 0, "byteOffset" : 2260, "byteLength" : 27072, "byteStride" : 24, "target" : 34962}], "meshes" : [{"primitives" : [{"attributes" : {"POSITION" : 1, "NORMAL" : 2}, "indices" : 0, "mode" : 4}], "name" : ""}], "nodes" : [{"mesh" : 0, "name" : ""}], "scene" : 0, "scenes" : [{"nodes" : [0]}]}