<?xml version="1.0" encoding="utf-8"?>
<!-- Generator: Adobe Illustrator 25.2.1, SVG Export Plug-In . SVG Version: 6.00 Build 0)  -->
<svg version="1.1" id="Layer_1" xmlns="http://www.w3.org/2000/svg" xmlns:xlink="http://www.w3.org/1999/xlink" x="0px" y="0px"
	 viewBox="0 0 512 512" style="enable-background:new 0 0 512 512;" xml:space="preserve">
<style type="text/css">
	.st0{fill:#FFFFFF;}
</style>
<path class="st0" d="M42.7,128C19.1,128,0,147.1,0,170.7v170.7C0,364.9,19.1,384,42.7,384h59.7L256,511.5V0.4L102.4,128H42.7z"/>
<path class="st0" d="M426.7,256c-0.1-58.9-47.8-106.6-106.7-106.7h-21.3V192H320c35.3,0,64,28.7,64,64s-28.7,64-64,64h-21.3v42.7
	H320C378.9,362.6,426.6,314.9,426.7,256z"/>
<path class="st0" d="M320,64h-21.3v42.7H320c82.5,0,149.3,66.9,149.3,149.3S402.5,405.3,320,405.3h-21.3V448H320
	c106,0,192-86,192-192S426,64,320,64z"/>
</svg>
